<svg width="32" height="32" viewBox="0 0 32 32" fill="none" xmlns="http://www.w3.org/2000/svg">
<path d="M24 14C22.8986 13.9981 21.8179 14.2999 20.8769 14.8722C19.9359 15.4446 19.1708 16.2653 18.6659 17.2442C18.1611 18.2231 17.9358 19.3223 18.0151 20.4208C18.0943 21.5194 18.4749 22.5749 19.115 23.4712L14 28.5859L15.4141 30L20.5288 24.8853C21.2982 25.4321 22.1857 25.7896 23.1193 25.9287C24.0529 26.0678 25.0062 25.9846 25.9015 25.6858C26.7969 25.387 27.6091 24.8811 28.272 24.2092C28.935 23.5373 29.4299 22.7184 29.7167 21.8191C30.0035 20.9198 30.0739 19.9656 29.9223 19.0339C29.7707 18.1023 29.4014 17.2196 28.8443 16.4576C28.2872 15.6956 27.5581 15.0759 26.7163 14.6489C25.8746 14.2218 24.9439 13.9995 24 14V14ZM24 24C23.2089 24 22.4355 23.7654 21.7777 23.3259C21.1199 22.8864 20.6072 22.2616 20.3045 21.5307C20.0017 20.7998 19.9225 19.9956 20.0769 19.2196C20.2312 18.4437 20.6122 17.731 21.1716 17.1716C21.731 16.6122 22.4437 16.2312 23.2196 16.0769C23.9956 15.9225 24.7998 16.0017 25.5307 16.3045C26.2616 16.6072 26.8864 17.1199 27.3259 17.7777C27.7654 18.4355 28 19.2089 28 20C27.9988 21.0605 27.577 22.0772 26.8271 22.8271C26.0772 23.577 25.0605 23.9988 24 24V24Z" fill="#F4F4F4"/>
<path d="M17 12C17.5933 12 18.1734 11.8241 18.6667 11.4944C19.1601 11.1648 19.5446 10.6962 19.7716 10.1481C19.9987 9.59987 20.0581 8.99667 19.9424 8.41473C19.8266 7.83279 19.5409 7.29824 19.1213 6.87868C18.7018 6.45912 18.1672 6.1734 17.5853 6.05765C17.0033 5.94189 16.4001 6.0013 15.8519 6.22836C15.3038 6.45543 14.8352 6.83994 14.5056 7.33329C14.1759 7.82664 14 8.40666 14 9C14.0009 9.79538 14.3172 10.5579 14.8796 11.1204C15.4421 11.6828 16.2046 11.9991 17 12ZM17 8C17.1978 8 17.3911 8.05865 17.5556 8.16853C17.72 8.27841 17.8482 8.43459 17.9239 8.61732C17.9996 8.80004 18.0194 9.00111 17.9808 9.19509C17.9422 9.38907 17.847 9.56726 17.7071 9.70711C17.5673 9.84696 17.3891 9.9422 17.1951 9.98079C17.0011 10.0194 16.8 9.99957 16.6173 9.92388C16.4346 9.84819 16.2784 9.72002 16.1685 9.55557C16.0586 9.39112 16 9.19778 16 9C16.0002 8.73486 16.1057 8.48064 16.2932 8.29316C16.4806 8.10567 16.7349 8.00024 17 8V8Z" fill="#F4F4F4"/>
<path d="M12 24H4V17.9966L9 13L14.5859 18.5859L16 17.168L10.4141 11.5825C10.039 11.2075 9.53038 10.9968 9 10.9968C8.46962 10.9968 7.96096 11.2075 7.5859 11.5825L4 15.168V4H24V10H26V4C25.9994 3.46975 25.7885 2.9614 25.4135 2.58646C25.0386 2.21152 24.5302 2.00061 24 2H4C3.46973 2.00053 2.96133 2.21141 2.58637 2.58637C2.21141 2.96133 2.00053 3.46973 2 4V24C2.00061 24.5302 2.21152 25.0386 2.58646 25.4135C2.9614 25.7885 3.46975 25.9994 4 26H12V24Z" fill="#F4F4F4"/>
</svg>
