<svg width="333" height="911" viewBox="0 0 333 911" fill="none" xmlns="http://www.w3.org/2000/svg">
<path d="M166.8 1.39997C155.1 5.59997 150.4 13.8 150.8 29.5C150.9 34.4 156.1 87.8 162.4 148L173.7 257.5L133.1 298.5C90.9 341 77.3 355.5 61.1 375C26.5 416.6 9.00001 449.3 2.90001 483.6C6.09271e-06 500.1 6.09271e-06 523.9 2.90001 540.4C19.5 634.7 111.1 695.6 204.5 674.5C210.5 673.1 215.6 672.2 215.8 672.5C216.1 672.8 219.9 708.1 224.3 750.9L232.3 828.9L230.6 837.6C225.1 865.9 204.4 887.5 174.3 896.3C171.4 897.2 164.5 898.4 159.1 899C115.4 904.1 76.4 873.4 71 829.8C68.5 808.9 76.4 783.1 89.6 769.6C98.6 760.4 112.2 754.2 126.4 753C132.4 752.4 134.7 751.8 135.7 750.4C137.6 747.8 137.3 745.3 134.9 742.9C133 741 132.1 740.8 125.8 741.4C106 743.4 88.4 752.4 77.7 766.3C71.6 774.1 64.7 788.1 61.9 798.5C58.8 810 58.7 830 61.8 842.2C70.1 875.5 95.2 900 129.8 908.7C134.6 910 140.5 910.4 151 910.3C163.3 910.3 167 909.9 175.4 907.7C206.5 899.4 229.5 878.7 239 850.1C244.2 834.6 244.1 832.8 235.6 749.5C231.4 708.8 227.7 673.9 227.4 671.9L226.9 668.4L241.2 661.2C259.6 652 271.8 643.2 285.5 629.5C303 611.9 315.8 591.9 324.4 568.8C345 513.4 324.3 454.4 273.9 424.9C256.8 415 241.9 411 218 410.1L200.6 409.5L193.3 339.5C189.4 301 186.1 267.8 186.1 265.6C186 261.9 186.8 260.9 202.3 245.1C238.1 208.4 261.5 177.6 272 153.3C278.2 138.8 279.4 133.2 279.4 119C279.3 108.4 278.9 105.2 276.6 97.6C268.9 72.3 256 51.8 235.2 31.9C210.3 7.99997 182.7 -4.30003 166.8 1.39997ZM182.7 12.5C201.7 17 227.4 36.4 244.6 59.3C253.4 71 263 89.9 266.2 102C269.7 115.1 269.3 127.7 265.1 140C258.2 160.4 244.3 181.6 219 210.5C206.9 224.4 184.9 247.2 184.3 246.6C183.5 245.8 162 33.7 162 26.9C162 18.9 164.6 14.2 170 12.3C174.6 10.7 175.4 10.8 182.7 12.5ZM182.5 342.6C186.1 377.9 189 408.1 189 409.7C189 412.4 188.6 412.7 181.3 414.9C163.5 420.4 144.6 432.3 131.7 445.9C100.2 479.3 91.2 529 109 570.9C113.9 582.5 116.5 586 119.9 586C123.1 586 125 584.2 125.3 581.2C125.3 580.1 123.5 575.2 121.2 570.3C112.5 552.1 109.2 529.2 112.4 509.8C117.9 476.6 137.6 448.9 167 433.1C173.8 429.5 189.8 423.4 190.5 424.2C190.9 424.6 213.9 648.8 214.2 655.4C214.5 661.1 215.3 660.6 199.3 664C129.5 679 57.7 643.4 27 578.7C16.9 557.4 13.1 541.3 12.3 517C11.9 502.2 12.1 497.7 13.8 487.3C18.8 458.4 30.9 432.8 54.4 401.6C74.2 375.4 89.8 358.2 137.5 310.2C173.3 274 174.5 272.9 175.2 275.7C175.6 277.2 178.9 307.4 182.5 342.6ZM234.1 422.5C254.7 426.1 272.8 435.2 287.9 449.5C309.6 470 321.1 496.6 321 525.9C320.9 538.7 319.3 548.4 315.1 561C304.1 593.5 282.3 622.3 254.5 640.8C250.7 643.4 242.8 647.9 237 650.9L226.5 656.2L225.7 652.4C225.2 649.5 202 425.2 202 422.6C202 420.7 223.3 420.6 234.1 422.5Z" fill="#F4F4F4"/>
</svg>
