<svg width="672" height="912" viewBox="0 0 672 912" fill="none" xmlns="http://www.w3.org/2000/svg">
<path d="M507.5 0.700012C480 4.10001 458 12 437.4 25.9C425.8 33.8 422 37.2 424 37.8C427.7 39.1 500.3 89.6 536 115.8C568.7 139.8 636.6 192.1 652.7 205.6L657.8 210L660.8 201.7C667.4 183.5 670 168.8 670 149.5C670 108 654.1 70.5 624.1 41.7C600.8 19.3 572.5 5.80001 540.3 1.50002C530.4 0.200015 514.8 -0.199988 507.5 0.700012Z" fill="#D6D6D6"/>
<path d="M387.7 82.5C379.6 98.7 374.3 117.2 372.5 135L371.9 141.5L386.5 155C394.6 162.4 406 172.9 411.8 178.4C452.9 216.4 473.5 231.1 534.5 266.3C548.8 274.5 563 283 566.2 285.1C569.3 287.3 572.5 289 573.3 289C575.5 289 594.5 279.4 602.4 274.4C610.3 269.2 617.9 263.2 625.7 255.7L630.9 250.6L626.9 248.8C619.1 245.3 540.2 190.3 497 158.2C452.2 124.8 395.6 80 393.6 76.2C392.2 73.6 392.2 73.6 387.7 82.5Z" fill="#D6D6D6"/>
<path d="M359.3 193.6C332.3 227.6 268.1 321.1 221.8 394C176.5 465.3 115.9 566.1 108.3 582.8C106 587.6 105.8 589.2 106.3 596.4C107.1 609.5 114.7 625.8 124.3 634.9L127.9 638.3L121.3 647.9C100.6 677.7 83.8001 698.2 59.9001 722.5C50.2001 732.4 38.9001 744.8 34.8001 750.2C16.8001 773.2 3.90005 800.7 0.900054 822.6C-0.599946 832.9 0.500055 846.2 5.00005 872.5C11.4001 909.7 12.4001 912 21.6001 912C26.1001 912 27.2001 911.6 28.9001 909.3C30.1001 907.9 31.3001 905.7 31.6001 904.5C31.9001 903.3 30.5001 894.1 28.6001 884.1C23.0001 855.3 20.7001 838.5 21.4001 830C22.5001 813.8 31.1001 792.5 44.6001 772.3C50.2001 763.8 56.7001 756.3 71.2001 741.3C99.7001 711.7 114.9 693.5 136.9 662.1L146 649.1L153.1 651.6C169.6 657.4 188.1 658.9 200.9 655.6C213.1 652.5 216.5 649.7 249.5 616.6C351 514.6 457.2 396.1 522 312.5L531.3 300.5L522.9 299.7C502.6 297.9 477.5 290.2 453 278.4C432.8 268.6 420.2 260.1 406.7 247.1C388.7 229.7 374.4 208.5 368.2 190.1L366.4 184.7L359.3 193.6Z" fill="#083ABB"/>
</svg>
