<svg width="730" height="912" viewBox="0 0 730 912" fill="none" xmlns="http://www.w3.org/2000/svg">
<g clip-path="url(#clip0)">
<path d="M674.5 421C662.6 424.8 652.5 434.3 647.8 446C646 450.4 645.6 453.5 645.5 461.5C645.5 470.7 645.8 472 648.7 478.3C659.4 500.8 684.3 509.6 706.6 498.5C714.9 494.5 720.6 488.6 725 479.9C741.7 446.9 709.9 409.8 674.5 421Z" fill="#F4F4F4"/>
<path d="M666.5 184.3C659.9 186.5 655.9 189 650.3 194.2C640.5 203.5 636.5 213.7 637.2 227.5C638.3 248.6 655.1 265.6 676 266.8C689.6 267.6 700.4 263.4 709.5 253.9C716 247.1 719.6 239.8 720.8 231.2C723.4 212.5 714.3 195.2 697.5 186.9C691.2 183.8 689.7 183.5 680.6 183.3C674.2 183.1 669 183.5 666.5 184.3Z" fill="#F4F4F4"/>
<path d="M243.1 1.00006C190.7 5.10006 144 19.5001 111 41.5001C97.1 50.9001 82.7 63.2001 63.5 82.5001C45.3 100.7 36.7 110.8 26.4 126.1C13.9 144.7 5.10001 165.5 1.90001 184C-0.899991 199.6 0.800009 225.9 5.60001 244.9C14.6 279.8 51.5 309.4 97.6 318.7C110.7 321.3 133.8 321 144.5 318.2C171.6 310.9 190.8 292.2 195.7 268.5C197 262.1 197.1 259.2 196.2 253.8C194.8 244.2 190.1 234.9 183.7 228.7C174.2 219.4 166.1 216.2 135 209.5C112.5 204.7 97.5 199.1 85.8 191.3C73.1 182.9 64.5 170.5 61.5 156.3C59.6 147.4 59.6 129.7 61.5 117.9L63.1 108.5L79.3 92.5001C96.4 75.7001 110.2 63.9 122.3 55.7C132.7 48.6 153.4 38.9 169.5 33.3L183.5 28.5001L207 28.7C321.4 29.5 382.2 68.2 420.3 164.5C437.9 209 452.7 277.2 457 333.3C458.4 351.9 458.4 396.5 457 413C447.9 519.8 411.4 611.9 331.3 730.4C309 763.3 305.4 768 294.5 777.5C250.6 815.8 195.6 856.3 146.5 886.5C137.7 891.9 130 897 129.3 897.9C127 900.9 127.8 905.9 130.9 909.1C136.2 914.4 136.3 914.3 166 895.7C272.5 829 374.4 737.3 442.5 647C536.3 522.6 575.8 393.9 560.4 263.5C547.5 155 494.6 74.4001 408.5 32.0001C376.6 16.3001 343.8 6.80006 307 2.50006C290.3 0.600061 258.3 -0.199939 243.1 1.00006Z" fill="#F4F4F4"/>
</g>
<defs>
<clipPath id="clip0">
<rect width="730" height="912" fill="white"/>
</clipPath>
</defs>
</svg>
