<svg width="912" height="912" viewBox="0 0 912 912" fill="none" xmlns="http://www.w3.org/2000/svg">
<path d="M422.078 0.912927C295.478 10.5129 178.778 72.2129 99.4781 171.313C-2.12195 298.513 -28.1219 471.213 31.7781 622.813C54.4781 680.413 86.1781 729.313 129.078 773.113C155.478 800.113 173.878 815.513 203.578 835.213C310.278 906.313 440.178 928.913 564.878 898.313C696.878 865.813 807.978 775.613 866.678 653.313C918.378 545.513 925.978 424.013 888.178 310.913C866.178 245.413 830.578 187.113 782.178 137.513C703.078 56.6129 601.978 9.61289 487.678 0.81289C472.978 -0.28711 437.578 -0.287073 422.078 0.912927ZM550.578 335.313C660.878 440.713 751.078 527.213 751.078 527.613C751.078 528.313 216.878 684.813 216.278 684.313C216.078 684.113 245.578 562.213 281.778 413.413C328.378 221.813 347.978 142.913 348.778 143.313C349.478 143.513 440.278 229.913 550.578 335.313Z" fill="#083ABB"/>
<path d="M754 527L349.5 139L215 684L754 527Z" fill="#F4F4F4"/>
</svg>
