<svg width="695" height="912" viewBox="0 0 695 912" fill="none" xmlns="http://www.w3.org/2000/svg">
<path d="M565.7 82.6C527.2 89.5 495.1 116.3 481.4 152.8C477.2 163.7 328.1 778.7 326.8 790.1C323.5 819.9 334.6 852.5 356 875.3C369.5 889.8 389.3 901.6 408.5 906.6C422.7 910.4 444.4 911 458.1 908.2C494.3 900.7 523.9 876.3 538.1 842.1C541.2 834.6 690.4 226.3 693.5 208.2C702.6 155.9 669.4 102.2 618 86.1C602.1 81.1 581.5 79.7 565.7 82.6ZM604.5 128.4C608.9 129.8 615.4 132.6 618.9 134.7C626.8 139.4 637.7 150.7 642.3 159.1C649.2 171.6 652.2 187.3 650.1 200C649.5 203.6 615.2 345.1 573.9 514.5C488.8 863.4 497.1 833.1 482.6 847.6C469.7 860.4 456.3 866 437.9 866C408 866 382.7 848.1 373.6 820.5C371 812.5 369.9 800.7 371 793C371.7 788.1 480.8 337.5 518.6 183.5C522.7 166.5 527.7 155.9 535.5 147.3C553 127.9 580 120.6 604.5 128.4Z" fill="#2891BE"/>
<path d="M237 4.00006C199.9 11.9001 169.2 37.7001 156.1 71.9001C152.7 80.7001 2.6 695.6 0.900005 707.5C-1.4 723.9 1.40001 745.2 8.10001 761.8C25.3 804.9 69.3 833 115.9 830.7C143.6 829.3 169.3 818 188.5 798.5C200.5 786.4 209.2 772.3 214.4 756.8C215.7 752.8 250.6 610.7 291.9 441C346.4 217 367.3 129.6 368.1 122C371.4 92.0001 360.1 59.5001 338.3 36.0001C323.5 20.0001 300.1 7.30006 278.3 3.50006C266.6 1.50006 247.7 1.70006 237 4.00006ZM274.4 48.0001C300.8 54.7001 321.4 78.3001 323.9 104.5C324.2 108.3 324.2 114.6 323.9 118.5C323.2 126 175.1 736 171.8 744.8C169 752.2 160.8 764.1 155 769.2C127.4 793.4 87.1 791.9 62.5 765.8C50.3 752.9 44.5 738.5 44.6 721C44.6 710.5 44.9 709.3 120.3 400.5C206.2 48.6 197.5 80.2001 212.4 65.5001C229.5 48.6001 252 42.2001 274.4 48.0001Z" fill="#2891BE"/>
</svg>
