<svg width="751" height="911" viewBox="0 0 751 911" fill="none" xmlns="http://www.w3.org/2000/svg">
<path d="M280.8 3.70004C279.4 4.60004 277.7 6.40004 277.1 7.80004C276.3 9.50004 276 94 276 302.7V595.3L266.7 585.9C242.4 561.5 210.7 546.5 172.7 541.5C94.0001 531.2 18.4001 572.6 2.8001 634.5C-0.299902 646.8 -0.299902 667.8 2.8001 679.2C7.7001 697.5 17.2001 713.9 30.7001 727.7C67.6001 765.3 127.8 781.6 186.2 769.9C206.4 765.9 229 756.5 245.9 745.2C267 731.2 284.9 708.6 292.5 686.5C297.3 672.5 297.1 681.5 297 440.7C297 316.6 297.2 215 297.5 215C298 215 687.7 334.3 717.8 343.6L729 347.1V538.5V729.9L719.3 720.2C672.2 673.2 589.4 661.5 524.4 692.5C497.8 705.3 474.7 727.2 463.6 750.3C456 766.1 454.5 772.9 454.5 792C454.5 806.2 454.8 809.6 456.8 816.5C475.8 882.9 560.2 922.7 642.9 904.4C693.2 893.2 733.3 861.1 745.8 822C751.4 804.7 751.1 829.8 750.8 474.4C750.5 148.8 750.5 147.2 748.5 145C747.4 143.8 745.4 142.3 744 141.8C742.6 141.3 660.7 116.1 562 85.9C463.3 55.6 361.3 24.4 335.4 16.4C309.5 8.50004 287.2 2.00004 285.9 2.00004C284.6 2.00004 282.3 2.80004 280.8 3.70004ZM513.5 93.8L728.5 159.7L728.8 241.9C729 319.9 728.9 324.1 727.3 323.6C726.3 323.3 660.9 303.3 582 279.1C503.1 255 408.8 226.1 372.5 215C336.2 204 304.4 194.2 301.8 193.4L297 191.8V109.9C297 64.9 297.4 28 297.8 28C298.2 28 395.3 57.6 513.5 93.8Z" fill="#2891BE"/>
</svg>
