<?xml version="1.0" standalone="no"?>
<!DOCTYPE svg PUBLIC "-//W3C//DTD SVG 20010904//EN"
 "http://www.w3.org/TR/2001/REC-SVG-20010904/DTD/svg10.dtd">
<svg version="1.0" xmlns="http://www.w3.org/2000/svg"
 width="333.000000pt" height="911.000000pt" viewBox="0 0 333.000000 911.000000"
 preserveAspectRatio="xMidYMid meet">

<g transform="translate(0.000000,911.000000) scale(0.100000,-0.100000)"
fill="#000000" stroke="none">
<path d="M1668 9096 c-117 -42 -164 -124 -160 -281 1 -49 53 -583 116 -1185
l113 -1095 -406 -410 c-422 -425 -558 -570 -720 -765 -346 -416 -521 -743
-582 -1086 -29 -165 -29 -403 0 -568 166 -943 1082 -1552 2016 -1341 60 14
111 23 113 20 3 -3 41 -356 85 -784 l80 -780 -17 -87 c-55 -283 -262 -499
-563 -587 -29 -9 -98 -21 -152 -27 -437 -51 -827 256 -881 692 -25 209 54 467
186 602 90 92 226 154 368 166 60 6 83 12 93 26 19 26 16 51 -8 75 -19 19 -28
21 -91 15 -198 -20 -374 -110 -481 -249 -61 -78 -130 -218 -158 -322 -31 -115
-32 -315 -1 -437 83 -333 334 -578 680 -665 48 -13 107 -17 212 -16 123 0 160
4 244 26 311 83 541 290 636 576 52 155 51 173 -34 1006 -42 407 -79 756 -82
776 l-5 35 143 72 c184 92 306 180 443 317 175 176 303 376 389 607 206 554
-1 1144 -505 1439 -171 99 -320 139 -559 148 l-174 6 -73 700 c-39 385 -72
717 -72 739 -1 37 7 47 162 205 358 367 592 675 697 918 62 145 74 201 74 343
-1 106 -5 138 -28 214 -77 253 -206 458 -414 657 -249 239 -525 362 -684 305z
m159 -111 c190 -45 447 -239 619 -468 88 -117 184 -306 216 -427 35 -131 31
-257 -11 -380 -69 -204 -208 -416 -461 -705 -121 -139 -341 -367 -347 -361 -8
8 -223 2129 -223 2197 0 80 26 127 80 146 46 16 54 15 127 -2z m-2 -3301 c36
-353 65 -655 65 -671 0 -27 -4 -30 -77 -52 -178 -55 -367 -174 -496 -310 -315
-334 -405 -831 -227 -1250 49 -116 75 -151 109 -151 32 0 51 18 54 48 0 11
-18 60 -41 109 -87 182 -120 411 -88 605 55 332 252 609 546 767 68 36 228 97
235 89 4 -4 234 -2246 237 -2312 3 -57 11 -52 -149 -86 -698 -150 -1416 206
-1723 853 -101 213 -139 374 -147 617 -4 148 -2 193 15 297 50 289 171 545
406 857 198 262 354 434 831 914 358 362 370 373 377 345 4 -15 37 -317 73
-669z m516 -799 c206 -36 387 -127 538 -270 217 -205 332 -471 331 -764 -1
-128 -17 -225 -59 -351 -110 -325 -328 -613 -606 -798 -38 -26 -117 -71 -175
-101 l-105 -53 -8 38 c-5 29 -237 2272 -237 2298 0 19 213 20 321 1z"/>
</g>
</svg>
