<svg width="622" height="907" viewBox="0 0 622 907" fill="none" xmlns="http://www.w3.org/2000/svg">
<path d="M327.6 2.10001C326.2 3.20001 324.3 5.50001 323.5 7.00001C322.2 9.50001 322 52.2 322 354.5V699.2L316.8 693C313.9 689.6 307.9 683.6 303.5 679.8C230.9 616.4 104.4 619.6 37.5 686.5C8.4 715.6 -4.1 750.5 1.5 787C5.5 813.6 17.8 836 40.3 857.6C64.9 881.4 98.1 897.3 138 904.5C150.4 906.7 184.3 907.6 197.6 906.1C244.2 900.7 284.7 881.9 312.7 852.7C330 834.5 340.3 815.6 345.8 791.6C347.3 785.1 347.5 750.8 348 410.8L348.5 37.1L364.7 49.3C419.7 90.8 474.2 142.9 510.4 188.3C556.8 246.8 583.8 301.8 593.7 358.5C596.2 372.7 596.2 414.2 593.7 428.5C588 461.2 576.2 491.5 559 518C552.9 527.3 552 529.3 552 533.3C552 543.3 563 548.9 571.7 543.3C574.9 541.2 587.5 521.5 594.6 507.4C644.4 409.2 625.5 297.6 540 184.5C493 122.3 422.7 56.5 351.6 8.10001C340.8 0.800011 339.2 1.09011e-05 335 1.09011e-05C331.7 1.09011e-05 329.5 0.600011 327.6 2.10001Z" fill="#F4F4F4"/>
</svg>
