<svg width="912" height="911" viewBox="0 0 912 911" fill="none" xmlns="http://www.w3.org/2000/svg">
<circle cx="461.5" cy="456.5" r="172.5" fill="#2891BE"/>
<ellipse cx="461" cy="456.5" rx="28" ry="29.5" fill="#F4F4F4"/>
<path d="M426.792 0.567139C284.192 10.4671 155.892 84.4671 77.2924 202.067C64.2924 221.567 57.4924 233.267 47.7924 252.567C-24.9076 397.567 -14.0075 573.167 75.9925 707.867C113.692 764.267 163.692 812.167 220.792 846.567C269.492 875.867 322.492 895.567 379.292 905.467C404.492 909.867 415.492 910.567 456.892 910.567C490.492 910.567 498.792 910.267 512.692 908.567C645.392 892.067 764.092 818.667 837.292 707.567C875.592 649.567 897.692 591.467 908.992 519.567C911.092 505.967 911.292 502.067 911.292 456.567C911.292 411.167 911.192 407.067 908.992 392.767C901.092 340.167 887.793 297.667 864.693 251.567C822.093 166.867 755.992 98.8672 672.292 53.7672C620.492 25.8672 564.192 8.66714 503.092 2.06714C486.192 0.167139 443.792 -0.632861 426.792 0.567139ZM459.592 41.7672C461.392 43.5672 460.992 47.3671 458.892 48.5671C457.792 49.0671 452.292 49.5671 446.592 49.5671C427.292 49.5671 399.392 52.6672 376.792 57.2672C273.492 78.1672 182.892 137.667 122.092 224.567C78.0924 287.467 52.7924 363.167 50.0924 439.767C49.5924 455.267 49.2924 457.767 47.5924 459.167C46.0924 460.567 45.2924 460.667 43.2924 459.767C40.7924 458.667 40.7924 458.467 40.7924 446.267C40.7924 420.567 45.5925 384.267 52.9925 355.067C82.3925 237.767 162.192 138.567 270.892 84.0671C315.092 61.8671 366.392 47.0671 416.292 42.1671C434.592 40.3671 457.992 40.1672 459.592 41.7672ZM486.492 291.567C537.792 300.867 582.692 334.567 605.792 381.067C617.492 404.567 622.492 423.967 623.492 449.567C624.592 478.667 618.892 504.767 605.792 531.067C582.992 576.567 540.992 608.567 489.792 619.767C480.592 621.767 476.492 621.967 456.292 621.967C436.292 621.967 431.992 621.667 423.392 619.767C388.092 611.867 360.092 596.167 335.192 570.367C314.092 548.467 299.392 520.367 292.592 489.167C290.692 480.367 290.392 476.067 290.392 456.067C290.292 435.767 290.592 431.867 292.592 422.567C308.292 350.867 364.292 299.367 436.792 289.967C450.392 288.267 471.992 288.867 486.492 291.567ZM871.792 453.067C873.392 454.967 872.592 479.567 870.292 500.567C863.992 557.167 846.092 612.367 818.292 661.167C809.392 676.667 792.992 700.767 781.192 715.567C767.392 732.967 734.192 766.167 716.792 779.967C701.992 791.767 677.892 808.167 662.392 817.067C604.792 849.967 539.692 868.467 471.892 871.167C455.992 871.767 455.192 871.767 453.492 869.767C451.192 867.167 451.992 863.767 455.092 863.167C456.292 862.967 466.292 862.267 477.292 861.667C517.992 859.467 552.192 852.967 589.492 840.167C708.792 799.267 805.092 701.167 843.592 581.567C855.292 545.267 860.792 514.867 862.992 475.067C863.592 463.467 864.592 453.467 865.092 452.767C866.392 451.067 870.292 451.267 871.792 453.067Z" fill="#083ABB"/>
</svg>
